<?xml version="1.0" standalone="no"?>
<!DOCTYPE svg PUBLIC "-//W3C//DTD SVG 20010904//EN"
 "http://www.w3.org/TR/2001/REC-SVG-20010904/DTD/svg10.dtd">
<svg version="1.0" xmlns="http://www.w3.org/2000/svg"
 width="1280.000000pt" height="1070.000000pt" viewBox="0 0 1280.000000 1070.000000"
 preserveAspectRatio="xMidYMid meet">
<g transform="translate(0.000000,1070.000000) scale(0.100000,-0.100000)"
fill="#000000" stroke="none">
<path d="M5785 10678 c-2 -7 -13 -49 -25 -93 -71 -268 -274 -492 -536 -591
-195 -74 -443 -72 -634 3 -242 97 -444 311 -516 548 -10 33 -21 64 -25 68 -9
11 -250 -49 -474 -119 -175 -54 -442 -149 -457 -163 -5 -4 3 -51 17 -105 97
-382 -81 -773 -438 -966 -218 -118 -421 -130 -654 -40 -84 32 -200 101 -264
158 l-36 31 -28 -29 c-34 -35 -51 -37 -81 -9 -15 14 -29 19 -43 14 -43 -13
-521 -510 -521 -541 0 -5 25 -31 56 -57 114 -101 214 -265 255 -422 33 -123
31 -310 -5 -428 -92 -308 -323 -532 -636 -619 -87 -25 -180 -26 -262 -5 -55
14 -58 14 -70 -5 -14 -21 -33 -21 -169 8 -26 6 -27 3 -62 -108 -36 -114 -74
-258 -101 -380 -21 -91 -67 -350 -64 -352 2 -2 41 -10 88 -20 174 -36 329
-117 458 -241 117 -110 190 -230 238 -392 36 -119 38 -306 5 -427 -86 -319
-338 -557 -689 -648 -20 -6 -20 -6 7 -114 16 -60 39 -144 51 -187 l24 -79 30
7 c67 14 163 18 170 7 5 -8 36 -9 99 -5 76 5 106 2 172 -16 397 -108 669 -450
668 -841 -1 -230 -83 -427 -251 -602 l-64 -67 57 -68 c133 -157 296 -331 411
-439 68 -62 127 -114 132 -114 5 0 19 11 32 25 13 14 27 25 31 25 5 0 24 -13
42 -30 40 -35 48 -36 64 -11 26 42 172 146 268 192 228 108 428 116 635 26
432 -188 643 -642 497 -1068 l-34 -99 56 -21 c267 -102 819 -264 838 -246 2 3
17 41 32 85 191 550 846 765 1332 438 76 -51 183 -159 235 -238 56 -84 90
-160 118 -268 l23 -85 34 3 c130 11 593 113 722 159 44 16 48 20 43 43 -45
189 -45 325 -1 475 70 240 228 424 460 540 120 61 185 79 185 52 0 -27 -105
-131 -173 -171 l-65 -38 18 -53 c27 -79 107 -260 148 -338 26 -48 41 -67 52
-63 8 2 46 16 84 31 92 34 199 42 289 21 385 -91 549 -521 321 -839 l-36 -49
38 -32 c66 -55 282 -210 327 -235 l45 -24 73 75 c112 115 235 169 385 169 143
0 262 -44 360 -134 119 -108 178 -239 179 -394 l0 -92 45 -10 c25 -5 92 -15
150 -21 58 -6 132 -15 166 -21 95 -14 94 -15 94 34 0 190 175 410 374 469 125
36 273 24 392 -33 94 -44 202 -152 245 -243 33 -70 35 -71 71 -56 13 5 69 27
126 49 109 43 317 145 326 159 3 5 -7 37 -21 73 -19 46 -27 89 -31 154 -8 158
37 281 146 396 111 118 257 176 417 166 100 -6 162 -25 245 -76 49 -30 68 -36
78 -28 23 18 185 238 225 304 l38 62 -70 69 c-211 207 -221 530 -22 742 104
111 238 170 386 170 l83 0 11 63 c31 177 55 464 46 567 -11 143 -6 135 -85
137 -276 6 -501 225 -517 503 -12 193 88 382 259 487 32 20 58 40 58 45 0 16
-72 153 -148 281 -56 94 -80 127 -92 123 -8 -3 -49 -17 -90 -32 -147 -53 -324
-32 -455 54 -232 151 -314 430 -200 679 14 30 25 57 25 58 0 14 -384 245 -407
245 -5 0 -28 -27 -53 -61 -155 -213 -437 -281 -677 -163 -164 80 -293 285
-293 465 0 50 -3 57 -22 63 -40 10 -361 19 -440 12 l-78 -8 0 -32 c0 -114
-105 -348 -139 -310 -14 15 6 175 33 259 91 287 360 529 660 596 l58 13 -6 60
c-19 175 -104 528 -186 776 -42 126 -142 385 -153 396 -2 2 -38 -9 -81 -24
l-77 -27 -23 28 -23 29 -69 -25 c-87 -31 -214 -51 -276 -43 -126 17 -292 90
-416 184 -231 174 -366 484 -332 763 24 199 100 357 242 505 l68 71 -102 99
c-153 148 -329 298 -489 417 l-36 27 -27 -21 c-29 -23 -25 -24 -92 25 -9 7
-32 -9 -83 -57 -89 -83 -194 -145 -319 -187 -85 -29 -113 -34 -234 -38 -120
-4 -145 -2 -209 18 -163 49 -341 162 -438 278 -154 185 -231 428 -203 647 6
51 14 99 17 107 11 27 -360 129 -660 182 -82 15 -160 29 -173 32 -13 2 -24 -1
-27 -8z m-540 -3249 c319 -27 620 -136 875 -317 116 -82 305 -269 383 -378
336 -475 390 -1082 139 -1594 -299 -612 -985 -993 -1675 -931 -317 28 -586
121 -844 292 -142 95 -352 303 -442 438 -186 281 -271 558 -271 884 0 409 151
778 439 1079 296 309 680 492 1106 528 133 11 159 11 290 -1z m4730 -3481
c300 -46 574 -248 715 -528 96 -190 128 -391 96 -590 -36 -224 -138 -415 -302
-568 -205 -192 -498 -293 -765 -263 -386 43 -702 285 -835 640 -176 468 33
998 481 1220 192 95 386 123 610 89z"/>
</g>
</svg>
